# xmcd
#
# Track frame offsets:
#	150
#	18547
#	35888
#	51928
#	67685
#	84094
#	95174
#	112867
#	129393
#	145224
#	160869
#	177757
#	195004
#
# Disc length: 2632
#
# Revision: 1
# Processed by: cddbd v1.5.1PL0 Copyright (c) Steve Scherf et al.
# Submitted via: VisiTrax 2.9.5.180 - For more info visit www.synapsa.com
# Normalized: r0:DSETVAR1
#
DISCID=9f0a460d
DTITLE=Various Artist - CDX 299 August 2002
DYEAR=2002
DGENRE=
TTITLE0=Robin English - Beautiful today
TTITLE1=Faith Hill - Cry
TTITLE2=Brooks and Dunn - Every river
TTITLE3=Terri Clark - I just wanna be mad
TTITLE4=LeAnn Rimes - Life goes on
TTITLE5=Elizabeth Cook - Stupid things
TTITLE6=John Cowan - They always take me back
TTITLE7=Lonestar - Unusually unusual
TTITLE8=Allison Moorer - Up this high
TTITLE9=Shelley Laine - Live a little
TTITLE10=Foster Martin Band - Thank you Lord for the sun
TTITLE11=Suzanne Edwards Alford - Window shoppin'
TTITLE12=Aaron Tippin - PSA
EXTD=
EXTT0=
EXTT1=
EXTT2=
EXTT3=
EXTT4=
EXTT5=
EXTT6=
EXTT7=
EXTT8=
EXTT9=
EXTT10=
EXTT11=
EXTT12=
PLAYORDER=
